<mxfile host="app.diagrams.net" modified="2023-09-10T10:26:29.528Z" agent="Mozilla/5.0 (Windows NT 10.0; Win64; x64) AppleWebKit/537.36 (KHTML, like Gecko) Chrome/116.0.0.0 Safari/537.36" etag="TDdiTwpvW1W1vQ3wL7Gv" version="21.7.1" type="device">
  <diagram name="Page-1" id="e7e014a7-5840-1c2e-5031-d8a46d1fe8dd">
    <mxGraphModel dx="2575" dy="1166" grid="1" gridSize="10" guides="1" tooltips="1" connect="1" arrows="1" fold="1" page="1" pageScale="1" pageWidth="1169" pageHeight="826" background="none" math="0" shadow="0">
      <root>
        <mxCell id="0" />
        <mxCell id="1" parent="0" />
        <mxCell id="sHCj2kmEHuOHkk9w08Wf-41" value="Core" style="shape=module;align=left;spacingLeft=20;align=center;verticalAlign=top;whiteSpace=wrap;html=1;" vertex="1" parent="1">
          <mxGeometry x="500" y="10" width="620" height="390" as="geometry" />
        </mxCell>
        <mxCell id="sHCj2kmEHuOHkk9w08Wf-47" value="Database" style="swimlane;fontStyle=0;childLayout=stackLayout;horizontal=1;startSize=26;fillColor=none;horizontalStack=0;resizeParent=1;resizeParentMax=0;resizeLast=0;collapsible=1;marginBottom=0;whiteSpace=wrap;html=1;" vertex="1" parent="1">
          <mxGeometry x="860" y="200" width="240" height="110" as="geometry" />
        </mxCell>
        <mxCell id="sHCj2kmEHuOHkk9w08Wf-48" value="- tickets: Collection&amp;lt;Ticket&amp;gt;&amp;nbsp;&lt;span style=&quot;white-space: pre;&quot;&gt;&#x9;&lt;/span&gt;" style="text;strokeColor=none;fillColor=none;align=left;verticalAlign=top;spacingLeft=4;spacingRight=4;overflow=hidden;rotatable=0;points=[[0,0.5],[1,0.5]];portConstraint=eastwest;whiteSpace=wrap;html=1;" vertex="1" parent="sHCj2kmEHuOHkk9w08Wf-47">
          <mxGeometry y="26" width="240" height="24" as="geometry" />
        </mxCell>
        <mxCell id="sHCj2kmEHuOHkk9w08Wf-49" value="- customers: Collection&amp;lt;Customer&amp;gt;&amp;nbsp;&#x9;" style="text;strokeColor=none;fillColor=none;align=left;verticalAlign=top;spacingLeft=4;spacingRight=4;overflow=hidden;rotatable=0;points=[[0,0.5],[1,0.5]];portConstraint=eastwest;whiteSpace=wrap;html=1;" vertex="1" parent="sHCj2kmEHuOHkk9w08Wf-47">
          <mxGeometry y="50" width="240" height="26" as="geometry" />
        </mxCell>
        <mxCell id="sHCj2kmEHuOHkk9w08Wf-50" value="- counter: int" style="text;strokeColor=none;fillColor=none;align=left;verticalAlign=top;spacingLeft=4;spacingRight=4;overflow=hidden;rotatable=0;points=[[0,0.5],[1,0.5]];portConstraint=eastwest;whiteSpace=wrap;html=1;" vertex="1" parent="sHCj2kmEHuOHkk9w08Wf-47">
          <mxGeometry y="76" width="240" height="34" as="geometry" />
        </mxCell>
        <mxCell id="sHCj2kmEHuOHkk9w08Wf-72" value="" style="edgeStyle=orthogonalEdgeStyle;rounded=0;orthogonalLoop=1;jettySize=auto;html=1;entryX=0.499;entryY=1.006;entryDx=0;entryDy=0;entryPerimeter=0;" edge="1" parent="1" source="sHCj2kmEHuOHkk9w08Wf-53" target="sHCj2kmEHuOHkk9w08Wf-67">
          <mxGeometry relative="1" as="geometry" />
        </mxCell>
        <mxCell id="sHCj2kmEHuOHkk9w08Wf-53" value="TicketProvider" style="swimlane;fontStyle=0;childLayout=stackLayout;horizontal=1;startSize=26;fillColor=none;horizontalStack=0;resizeParent=1;resizeParentMax=0;resizeLast=0;collapsible=1;marginBottom=0;whiteSpace=wrap;html=1;" vertex="1" parent="1">
          <mxGeometry x="600" y="180" width="210" height="78" as="geometry" />
        </mxCell>
        <mxCell id="sHCj2kmEHuOHkk9w08Wf-54" value="- paymentProvider: PaymentProvider" style="text;strokeColor=none;fillColor=none;align=left;verticalAlign=top;spacingLeft=4;spacingRight=4;overflow=hidden;rotatable=0;points=[[0,0.5],[1,0.5]];portConstraint=eastwest;whiteSpace=wrap;html=1;" vertex="1" parent="sHCj2kmEHuOHkk9w08Wf-53">
          <mxGeometry y="26" width="210" height="26" as="geometry" />
        </mxCell>
        <mxCell id="sHCj2kmEHuOHkk9w08Wf-55" value="- database: Database" style="text;strokeColor=none;fillColor=none;align=left;verticalAlign=top;spacingLeft=4;spacingRight=4;overflow=hidden;rotatable=0;points=[[0,0.5],[1,0.5]];portConstraint=eastwest;whiteSpace=wrap;html=1;" vertex="1" parent="sHCj2kmEHuOHkk9w08Wf-53">
          <mxGeometry y="52" width="210" height="26" as="geometry" />
        </mxCell>
        <mxCell id="sHCj2kmEHuOHkk9w08Wf-57" value="CustometProvider" style="swimlane;fontStyle=0;childLayout=stackLayout;horizontal=1;startSize=26;fillColor=none;horizontalStack=0;resizeParent=1;resizeParentMax=0;resizeLast=0;collapsible=1;marginBottom=0;whiteSpace=wrap;html=1;" vertex="1" parent="1">
          <mxGeometry x="600" y="280" width="210" height="52" as="geometry" />
        </mxCell>
        <mxCell id="sHCj2kmEHuOHkk9w08Wf-59" value="- database: Database" style="text;strokeColor=none;fillColor=none;align=left;verticalAlign=top;spacingLeft=4;spacingRight=4;overflow=hidden;rotatable=0;points=[[0,0.5],[1,0.5]];portConstraint=eastwest;whiteSpace=wrap;html=1;" vertex="1" parent="sHCj2kmEHuOHkk9w08Wf-57">
          <mxGeometry y="26" width="210" height="26" as="geometry" />
        </mxCell>
        <mxCell id="sHCj2kmEHuOHkk9w08Wf-64" value="PaymentProvider" style="swimlane;fontStyle=1;align=center;verticalAlign=top;childLayout=stackLayout;horizontal=1;startSize=26;horizontalStack=0;resizeParent=1;resizeParentMax=0;resizeLast=0;collapsible=1;marginBottom=0;whiteSpace=wrap;html=1;" vertex="1" parent="1">
          <mxGeometry x="560" y="60" width="290" height="62" as="geometry" />
        </mxCell>
        <mxCell id="sHCj2kmEHuOHkk9w08Wf-67" value="+ buyTicket(orderId, cardNo, amount): boolean" style="text;strokeColor=none;fillColor=none;align=left;verticalAlign=top;spacingLeft=4;spacingRight=4;overflow=hidden;rotatable=0;points=[[0,0.5],[1,0.5]];portConstraint=eastwest;whiteSpace=wrap;html=1;" vertex="1" parent="sHCj2kmEHuOHkk9w08Wf-64">
          <mxGeometry y="26" width="290" height="36" as="geometry" />
        </mxCell>
        <mxCell id="sHCj2kmEHuOHkk9w08Wf-68" value="" style="edgeStyle=orthogonalEdgeStyle;rounded=0;orthogonalLoop=1;jettySize=auto;html=1;" edge="1" parent="1" source="sHCj2kmEHuOHkk9w08Wf-54" target="sHCj2kmEHuOHkk9w08Wf-49">
          <mxGeometry relative="1" as="geometry" />
        </mxCell>
        <mxCell id="sHCj2kmEHuOHkk9w08Wf-69" value="" style="edgeStyle=orthogonalEdgeStyle;rounded=0;orthogonalLoop=1;jettySize=auto;html=1;" edge="1" parent="1" source="sHCj2kmEHuOHkk9w08Wf-59" target="sHCj2kmEHuOHkk9w08Wf-50">
          <mxGeometry relative="1" as="geometry" />
        </mxCell>
        <mxCell id="sHCj2kmEHuOHkk9w08Wf-76" value="" style="edgeStyle=orthogonalEdgeStyle;rounded=0;orthogonalLoop=1;jettySize=auto;html=1;entryX=0.016;entryY=0.534;entryDx=0;entryDy=0;entryPerimeter=0;" edge="1" parent="1" source="sHCj2kmEHuOHkk9w08Wf-73" target="sHCj2kmEHuOHkk9w08Wf-41">
          <mxGeometry relative="1" as="geometry" />
        </mxCell>
        <mxCell id="sHCj2kmEHuOHkk9w08Wf-73" value="Bus&lt;br&gt;" style="shape=module;align=left;spacingLeft=20;align=center;verticalAlign=top;whiteSpace=wrap;html=1;" vertex="1" parent="1">
          <mxGeometry x="100" y="129" width="300" height="180" as="geometry" />
        </mxCell>
        <mxCell id="sHCj2kmEHuOHkk9w08Wf-74" value="BusStation" style="swimlane;fontStyle=0;childLayout=stackLayout;horizontal=1;startSize=26;fillColor=none;horizontalStack=0;resizeParent=1;resizeParentMax=0;resizeLast=0;collapsible=1;marginBottom=0;whiteSpace=wrap;html=1;" vertex="1" parent="1">
          <mxGeometry x="160" y="193" width="210" height="52" as="geometry" />
        </mxCell>
        <mxCell id="sHCj2kmEHuOHkk9w08Wf-75" value="- ticketProvider: TicketProvider" style="text;strokeColor=none;fillColor=none;align=left;verticalAlign=top;spacingLeft=4;spacingRight=4;overflow=hidden;rotatable=0;points=[[0,0.5],[1,0.5]];portConstraint=eastwest;whiteSpace=wrap;html=1;" vertex="1" parent="sHCj2kmEHuOHkk9w08Wf-74">
          <mxGeometry y="26" width="210" height="26" as="geometry" />
        </mxCell>
        <mxCell id="sHCj2kmEHuOHkk9w08Wf-120" style="edgeStyle=orthogonalEdgeStyle;rounded=0;orthogonalLoop=1;jettySize=auto;html=1;entryX=0.46;entryY=0.996;entryDx=0;entryDy=0;entryPerimeter=0;" edge="1" parent="1" source="sHCj2kmEHuOHkk9w08Wf-77" target="sHCj2kmEHuOHkk9w08Wf-41">
          <mxGeometry relative="1" as="geometry" />
        </mxCell>
        <mxCell id="sHCj2kmEHuOHkk9w08Wf-77" value="Clients" style="shape=module;align=left;spacingLeft=20;align=center;verticalAlign=top;whiteSpace=wrap;html=1;" vertex="1" parent="1">
          <mxGeometry x="520" y="500" width="530" height="220" as="geometry" />
        </mxCell>
        <mxCell id="sHCj2kmEHuOHkk9w08Wf-82" value="MobileApp" style="swimlane;fontStyle=0;childLayout=stackLayout;horizontal=1;startSize=26;fillColor=none;horizontalStack=0;resizeParent=1;resizeParentMax=0;resizeLast=0;collapsible=1;marginBottom=0;whiteSpace=wrap;html=1;" vertex="1" parent="1">
          <mxGeometry x="690" y="550" width="260" height="104" as="geometry" />
        </mxCell>
        <mxCell id="sHCj2kmEHuOHkk9w08Wf-83" value="- customer: Customer" style="text;strokeColor=none;fillColor=none;align=left;verticalAlign=top;spacingLeft=4;spacingRight=4;overflow=hidden;rotatable=0;points=[[0,0.5],[1,0.5]];portConstraint=eastwest;whiteSpace=wrap;html=1;" vertex="1" parent="sHCj2kmEHuOHkk9w08Wf-82">
          <mxGeometry y="26" width="260" height="26" as="geometry" />
        </mxCell>
        <mxCell id="sHCj2kmEHuOHkk9w08Wf-84" value="- customerProvider: CustomerProvider" style="text;strokeColor=none;fillColor=none;align=left;verticalAlign=top;spacingLeft=4;spacingRight=4;overflow=hidden;rotatable=0;points=[[0,0.5],[1,0.5]];portConstraint=eastwest;whiteSpace=wrap;html=1;" vertex="1" parent="sHCj2kmEHuOHkk9w08Wf-82">
          <mxGeometry y="52" width="260" height="26" as="geometry" />
        </mxCell>
        <mxCell id="sHCj2kmEHuOHkk9w08Wf-85" value="- ticketProvider: TicketProvider" style="text;strokeColor=none;fillColor=none;align=left;verticalAlign=top;spacingLeft=4;spacingRight=4;overflow=hidden;rotatable=0;points=[[0,0.5],[1,0.5]];portConstraint=eastwest;whiteSpace=wrap;html=1;" vertex="1" parent="sHCj2kmEHuOHkk9w08Wf-82">
          <mxGeometry y="78" width="260" height="26" as="geometry" />
        </mxCell>
        <mxCell id="sHCj2kmEHuOHkk9w08Wf-87" value="" style="shape=providedRequiredInterface;html=1;verticalLabelPosition=bottom;sketch=0;direction=south;" vertex="1" parent="1">
          <mxGeometry x="695" y="122" width="20" height="20" as="geometry" />
        </mxCell>
        <mxCell id="sHCj2kmEHuOHkk9w08Wf-89" value="" style="ellipse;whiteSpace=wrap;html=1;align=center;aspect=fixed;fillColor=none;strokeColor=none;resizable=0;perimeter=centerPerimeter;rotatable=0;allowArrows=0;points=[];outlineConnect=1;" vertex="1" parent="1">
          <mxGeometry x="760" y="410" width="10" height="10" as="geometry" />
        </mxCell>
        <mxCell id="sHCj2kmEHuOHkk9w08Wf-118" style="edgeStyle=orthogonalEdgeStyle;rounded=0;orthogonalLoop=1;jettySize=auto;html=1;entryX=1.004;entryY=0.603;entryDx=0;entryDy=0;entryPerimeter=0;" edge="1" parent="1" source="sHCj2kmEHuOHkk9w08Wf-102" target="sHCj2kmEHuOHkk9w08Wf-41">
          <mxGeometry relative="1" as="geometry" />
        </mxCell>
        <mxCell id="sHCj2kmEHuOHkk9w08Wf-119" style="edgeStyle=orthogonalEdgeStyle;rounded=0;orthogonalLoop=1;jettySize=auto;html=1;entryX=1;entryY=0.5;entryDx=0;entryDy=0;" edge="1" parent="1" source="sHCj2kmEHuOHkk9w08Wf-102" target="sHCj2kmEHuOHkk9w08Wf-77">
          <mxGeometry relative="1" as="geometry">
            <Array as="points">
              <mxPoint x="1170" y="490" />
              <mxPoint x="1170" y="610" />
            </Array>
          </mxGeometry>
        </mxCell>
        <mxCell id="sHCj2kmEHuOHkk9w08Wf-102" value="Entities" style="shape=module;align=left;spacingLeft=20;align=center;verticalAlign=top;whiteSpace=wrap;html=1;" vertex="1" parent="1">
          <mxGeometry x="1220" y="290" width="320" height="400" as="geometry" />
        </mxCell>
        <mxCell id="sHCj2kmEHuOHkk9w08Wf-117" value="" style="edgeStyle=orthogonalEdgeStyle;rounded=0;orthogonalLoop=1;jettySize=auto;html=1;entryX=0.5;entryY=0;entryDx=0;entryDy=0;" edge="1" parent="1" source="sHCj2kmEHuOHkk9w08Wf-104" target="sHCj2kmEHuOHkk9w08Wf-111">
          <mxGeometry relative="1" as="geometry" />
        </mxCell>
        <mxCell id="sHCj2kmEHuOHkk9w08Wf-104" value="Ticket" style="swimlane;fontStyle=0;childLayout=stackLayout;horizontal=1;startSize=26;fillColor=none;horizontalStack=0;resizeParent=1;resizeParentMax=0;resizeLast=0;collapsible=1;marginBottom=0;whiteSpace=wrap;html=1;" vertex="1" parent="1">
          <mxGeometry x="1315" y="328" width="140" height="156" as="geometry" />
        </mxCell>
        <mxCell id="sHCj2kmEHuOHkk9w08Wf-105" value="- id: int" style="text;strokeColor=none;fillColor=none;align=left;verticalAlign=top;spacingLeft=4;spacingRight=4;overflow=hidden;rotatable=0;points=[[0,0.5],[1,0.5]];portConstraint=eastwest;whiteSpace=wrap;html=1;" vertex="1" parent="sHCj2kmEHuOHkk9w08Wf-104">
          <mxGeometry y="26" width="140" height="26" as="geometry" />
        </mxCell>
        <mxCell id="sHCj2kmEHuOHkk9w08Wf-106" value="- date: Date&lt;span style=&quot;white-space: pre;&quot;&gt;&#x9;&lt;/span&gt;" style="text;strokeColor=none;fillColor=none;align=left;verticalAlign=top;spacingLeft=4;spacingRight=4;overflow=hidden;rotatable=0;points=[[0,0.5],[1,0.5]];portConstraint=eastwest;whiteSpace=wrap;html=1;" vertex="1" parent="sHCj2kmEHuOHkk9w08Wf-104">
          <mxGeometry y="52" width="140" height="26" as="geometry" />
        </mxCell>
        <mxCell id="sHCj2kmEHuOHkk9w08Wf-107" value="- customerId: int" style="text;strokeColor=none;fillColor=none;align=left;verticalAlign=top;spacingLeft=4;spacingRight=4;overflow=hidden;rotatable=0;points=[[0,0.5],[1,0.5]];portConstraint=eastwest;whiteSpace=wrap;html=1;" vertex="1" parent="sHCj2kmEHuOHkk9w08Wf-104">
          <mxGeometry y="78" width="140" height="26" as="geometry" />
        </mxCell>
        <mxCell id="sHCj2kmEHuOHkk9w08Wf-108" value="- qrcode: String" style="text;strokeColor=none;fillColor=none;align=left;verticalAlign=top;spacingLeft=4;spacingRight=4;overflow=hidden;rotatable=0;points=[[0,0.5],[1,0.5]];portConstraint=eastwest;whiteSpace=wrap;html=1;" vertex="1" parent="sHCj2kmEHuOHkk9w08Wf-104">
          <mxGeometry y="104" width="140" height="26" as="geometry" />
        </mxCell>
        <mxCell id="sHCj2kmEHuOHkk9w08Wf-109" value="- enable: boolean" style="text;strokeColor=none;fillColor=none;align=left;verticalAlign=top;spacingLeft=4;spacingRight=4;overflow=hidden;rotatable=0;points=[[0,0.5],[1,0.5]];portConstraint=eastwest;whiteSpace=wrap;html=1;" vertex="1" parent="sHCj2kmEHuOHkk9w08Wf-104">
          <mxGeometry y="130" width="140" height="26" as="geometry" />
        </mxCell>
        <mxCell id="sHCj2kmEHuOHkk9w08Wf-111" value="Customer" style="swimlane;fontStyle=0;childLayout=stackLayout;horizontal=1;startSize=26;fillColor=none;horizontalStack=0;resizeParent=1;resizeParentMax=0;resizeLast=0;collapsible=1;marginBottom=0;whiteSpace=wrap;html=1;" vertex="1" parent="1">
          <mxGeometry x="1280" y="538" width="210" height="104" as="geometry" />
        </mxCell>
        <mxCell id="sHCj2kmEHuOHkk9w08Wf-112" value="- id: int" style="text;strokeColor=none;fillColor=none;align=left;verticalAlign=top;spacingLeft=4;spacingRight=4;overflow=hidden;rotatable=0;points=[[0,0.5],[1,0.5]];portConstraint=eastwest;whiteSpace=wrap;html=1;" vertex="1" parent="sHCj2kmEHuOHkk9w08Wf-111">
          <mxGeometry y="26" width="210" height="26" as="geometry" />
        </mxCell>
        <mxCell id="sHCj2kmEHuOHkk9w08Wf-113" value="- tickets: Collection&amp;lt;Ticket&amp;gt;" style="text;strokeColor=none;fillColor=none;align=left;verticalAlign=top;spacingLeft=4;spacingRight=4;overflow=hidden;rotatable=0;points=[[0,0.5],[1,0.5]];portConstraint=eastwest;whiteSpace=wrap;html=1;" vertex="1" parent="sHCj2kmEHuOHkk9w08Wf-111">
          <mxGeometry y="52" width="210" height="26" as="geometry" />
        </mxCell>
        <mxCell id="sHCj2kmEHuOHkk9w08Wf-114" value="- counter: int" style="text;strokeColor=none;fillColor=none;align=left;verticalAlign=top;spacingLeft=4;spacingRight=4;overflow=hidden;rotatable=0;points=[[0,0.5],[1,0.5]];portConstraint=eastwest;whiteSpace=wrap;html=1;" vertex="1" parent="sHCj2kmEHuOHkk9w08Wf-111">
          <mxGeometry y="78" width="210" height="26" as="geometry" />
        </mxCell>
      </root>
    </mxGraphModel>
  </diagram>
</mxfile>
